<svg id="图层_1" data-name="图层 1" xmlns="http://www.w3.org/2000/svg" xmlns:xlink="http://www.w3.org/1999/xlink" viewBox="0 100 960.71 350"><defs><style>.cls-1{fill:#006eff;}.cls-2{fill:url(#未命名的渐变_2);}.cls-3{fill:url(#未命名的渐变_3);}.cls-4{fill:#00a4ff;}</style><linearGradient id="未命名的渐变_2" x1="112.1" y1="228.06" x2="190.52" y2="228.06" gradientUnits="userSpaceOnUse"><stop offset="0" stop-color="#c6f1ff"/><stop offset="1" stop-color="#64d1ff"/></linearGradient><linearGradient id="未命名的渐变_3" x1="304.78" y1="228.06" x2="232.54" y2="228.06" gradientUnits="userSpaceOnUse"><stop offset="0.01" stop-color="#c6f1ff"/><stop offset="1" stop-color="#64d1ff"/></linearGradient></defs><rect x="365.31" y="308.93" width="45.4" height="8.33"/><path d="M334.37,293.52c0,15.14-1.22,26.63-3.74,36.82-.27.94,0,1.19.51,1.19h8.35a173.9,173.9,0,0,0,3.2-34h11.67V323.4h-8.29c-.4,0-.71.27-.5.84l2.28,7.49h14.82V234.5h-28.3Zm8.33-3.5V270.09h11.66V290Zm11.66-47.19V262.6H342.7V242.83Z"/><path d="M413.93,268.25h11.18v-7.49H392.53A75.35,75.35,0,0,0,395.2,253h27.86v-7.49H414.9c1.36-4.63,3-10.1,3.06-10.41.16-.56-.13-.77-.49-.77h-7.09l-3.29,11.18h-10c.94-4.33,1.75-9.13,2.49-14.52.09-.62-.25-.75-.66-.75h-8.07c-.83,5.73-1.69,10.66-2.79,15.27h-4.92l-3.29-11.18h-7.09c-.35,0-.65.21-.48.77.09.31,1.69,5.78,3.05,10.41h-7.95V253h18.56a72.18,72.18,0,0,1-3,7.75H365.32v7.49h13.19a42.85,42.85,0,0,1-13.27,12.41v8.57c0,.43.34.89,1.7.12a74.87,74.87,0,0,0,7.76-4.94h31l-.26,11.22H381l.38-6.71a.49.49,0,0,0-.51-.51H373l-.79,14.21a.49.49,0,0,0,.51.5H415v20.27h-19c-.4,0-.71.26-.5.84l2.28,7.49h26.42V295.63H413.78l.34-14.57a60.38,60.38,0,0,0,11.36,8.29c1.36.77,1.7.32,1.7-.12v-8.57A42.88,42.88,0,0,1,413.93,268.25Zm-10.2,0a60.83,60.83,0,0,0,6.36,8.66H382.83a52.87,52.87,0,0,0,6.08-8.66Z"/><path d="M525.13,232.33H467.58v8.32h17.33V271H465.05v8.33h19.86v50.91h9.16V279.34H516v49.85h17.3v-8.34h-8.14ZM494.07,271V240.65H516V271Z"/><path d="M473.39,301.18c-.16.11-7.93,6-15.45,11.7V258.75h-21.4v9.16h12.31v51.86l-4.92,3.73,5,6.64L474.21,311v-9.43A.5.5,0,0,0,473.39,301.18Z"/><path d="M450.05,250.55h10a.5.5,0,0,0,.43-.78l-12.62-19.29h-10a.51.51,0,0,0-.45.76Z"/><rect x="766.14" y="234.48" width="72.29" height="9.16"/><path d="M792.35,278.26h56.26V269.1H756v9.16h25.7c-5.31,13.94-18.63,48.92-18.72,49.17a.5.5,0,0,0,.47.71h79.91a.51.51,0,0,0,.46-.72c-.08-.23-11.91-31.33-11.91-31.33h-10a.51.51,0,0,0-.48.7c.13.33,8.43,22.19,8.43,22.19h-53Z"/><polygon points="615.07 320.47 615.07 293.66 635.36 293.66 635.36 285.33 585.61 285.33 585.61 293.66 605.9 293.66 605.9 320.47 582 320.47 582 328.8 638.97 328.8 638.97 320.47 615.07 320.47"/><polygon points="560.97 250.59 582.91 250.59 582.91 242.26 563.61 242.26 567.07 231.39 558.33 231.39 554.88 242.26 542.35 242.26 542.35 250.59 552.23 250.59 542.6 280.93 542.6 289.26 561.95 289.26 561.95 304.05 542.05 304.05 542.05 312.38 561.95 312.38 561.95 332.23 571.11 332.23 571.11 312.38 581.78 312.38 581.78 304.05 571.11 304.05 571.11 289.26 580.8 289.26 580.8 280.93 571.11 280.93 571.11 264.21 561.95 264.21 561.95 280.93 551.33 280.93 560.97 250.59"/><path d="M638.72,272.44a107,107,0,0,1-20.62-11.5,105.11,105.11,0,0,0,15.36-17v-8.33H587.12v8.33h35.32c-10.22,12.43-23,21.83-38.88,28.54v9.43a116.42,116.42,0,0,0,27.55-15.21,116.72,116.72,0,0,0,27.61,15.21Z"/><rect x="647.88" y="265.47" width="96.92" height="6.62"/><path d="M700.55,317.19h38v-6.62h-38v-4.93h35.11v-29.9H657v29.9h35.18v4.93h-38v6.62h38v3.5H647.88v7.45H744.8v-7.45H700.55ZM726.42,299H700.55v-5.43h25.87Zm0-16.66v5.43H700.55v-5.43Zm-34.28,0v5.43H666.21v-5.43ZM666.21,299v-5.43h25.93V299Z"/><path d="M735.66,234.05H657v28.24h78.7V234.05Zm-9.24,7.45v3.77H666.21V241.5Zm-60.21,13.34v-3.77h60.21v3.77Z"/><path class="cls-1" d="M211.05,215.12a161.59,161.59,0,0,1,20.65,1.3V204.3l-12.26-6.25-8.39-4.25v0h0l-8.36,4.28-12.14,6.16v12.2A162.13,162.13,0,0,1,211.05,215.12Z"/><path class="cls-2" d="M190.52,218.35v19.47l-76.11,16.42a149.45,149.45,0,0,1,0-52.35Z"/><path class="cls-3" d="M231.7,218.35v19.47l76.12,16.42a150.09,150.09,0,0,0,0-52.35Z"/><path class="cls-4" d="M254.79,324.09v19.49a260.55,260.55,0,0,1-87.39,0V324.09a258,258,0,0,0,43.7,3.71A256.84,256.84,0,0,0,254.79,324.09Z"/><path class="cls-1" d="M233.23,253.35q3,.41,6,.91v-12.5a165.14,165.14,0,0,0-56.22,0v12.5c2-.35,4-.65,6-.92l-11.28,65.44a260.52,260.52,0,0,0,33.37,2.14,259.06,259.06,0,0,0,33.4-2.15Z"/></svg>