<svg xmlns="http://www.w3.org/2000/svg" xmlns:xlink="http://www.w3.org/1999/xlink" fill="none" version="1.1" width="139.4921875" height="31.5" viewBox="0 0 139.4921875 31.5"><g><path d="M3.5,4.375L3.5,1.73775C3.50666,0.781472,4.27973,0.00762701,5.236,0L36.764,0C37.723,0,38.5,0.77875,38.5,1.73775L38.5,29.7623C38.4933,30.7185,37.7203,31.4924,36.764,31.5L5.236,31.5C4.27695,31.499,3.5,30.7213,3.5,29.7623L3.5,28L35,28L35,7.525L21,20.125L3.5,4.375ZM0,12.25L8.75,12.25L8.75,15.75L0,15.75L0,12.25ZM0,21L14,21L14,24.5L0,24.5L0,21ZM63.1953,17.3438Q63.8672,19.7422,65.0156,21.7266Q66.1719,23.7031,67.875,25.5547L65.6172,26.5625Q63.2656,23.75,61.8047,19.6484Q60.9922,21.6406,59.7656,23.4219Q58.5391,25.1953,57.0312,26.4609L54.9922,25.4531Q56.9062,23.7734,58.2969,21.7031Q59.6953,19.625,60.3203,17.3438L56.4297,17.3438L56.6719,15.2344L60.75,15.2344L61.2031,11.6797L57.5547,11.6797L57.7969,9.61719L59.7188,9.61719L58.8984,5.99219L61.0391,5.99219L61.8516,9.61719L63.6797,9.61719L65.0469,5.99219L67.3281,5.99219L65.9297,9.61719L67.875,9.61719L67.6641,11.6797L63.5312,11.6797L63.0078,15.2344L67.8516,15.2344L67.6094,17.3438L63.1953,17.3438ZM52.6406,22.1406Q49.7812,22.7891,47,23.2734L47.2812,21.1328L48.2891,20.9453L49.7578,8.94531L48.5312,8.94531L48.7734,6.90625L57.7969,6.90625L57.5547,8.94531L56.4297,8.94531L55.1562,19.4062L56,19.1953L56.8359,18.9766L56.5938,21.1094L54.8906,21.5938L54.3203,26.3672L52.1094,26.3672L52.6406,22.1406ZM54.3203,8.94531L51.8203,8.94531L51.5078,11.3672L54.0078,11.3672L54.3203,8.94531ZM53.7656,13.2891L51.2656,13.2891L50.9844,15.6641L53.4531,15.6641L53.7656,13.2891ZM50.3828,20.5078Q50.7891,20.4375,51.6562,20.25L52.9219,19.9609L53.2109,17.5859L50.7422,17.5859L50.3828,20.5078ZM87.6562,18.1562Q87.1719,18.2109,86.9531,18.2109Q84.9688,18.3984,83.1641,18.4922L82.4922,24.4453Q82.3984,25.4297,81.9375,25.8516Q81.4844,26.2734,80.5938,26.2734Q80.2344,26.2734,80.0469,26.25Q78.2422,25.9609,77.0234,25.5547L77.3125,23.4141Q77.8828,23.5625,78.5781,23.75Q79.2031,23.9219,79.6406,24.0156Q79.7578,24.0391,79.8984,24.0391Q80.0469,24.0391,80.0781,23.9844Q80.1172,23.9219,80.1406,23.7031L80.7656,18.6641Q79.1562,18.7578,77.5938,18.8047L74.5703,18.9062Q73.8984,18.9062,73.5234,18.6094Q73.1562,18.3047,73.1562,17.875Q73.1562,17.5625,73.3984,17.2656Q73.6406,16.9609,74.0703,16.7656Q76.9766,15.5703,79.7344,14.0312Q76.6094,14.2734,75.2422,14.2734Q74.6953,14.2734,74.3672,13.9609Q74.0469,13.6484,74.0469,13.2188Q74.0469,12.5703,74.7891,12.1562Q76.9219,11.0078,79.4219,9.21094Q77.8125,9.35156,74.7422,9.44531L73.7109,9.49219L74,7.40625Q77.7422,7.28906,82.1562,6.92969Q86.5,6.57031,90.7266,6.08594L90.4375,8.20312Q87.6562,8.5625,83.2109,8.94531Q80.3359,11.0078,77.8125,12.3984Q81.2422,12.2344,83.3359,11.9688L83.9844,11.5625Q85.4219,10.6484,86.7891,9.75781L88.8047,11.0781Q86.5234,12.5938,83.2109,14.3438Q79.9766,16.0938,77.8828,16.9609Q81.9375,16.7891,86.6172,16.3125L85.4219,14.1719L87.8906,14.1719L90.7266,19.1641L88.2266,19.1641L87.6562,18.1562ZM87.5781,19.7891L91.0859,25.0469L88.2266,25.0469L85.0391,19.7891L87.5781,19.7891ZM77.8359,19.9141L73.875,24.9766L70.9219,24.9766L75.125,19.9141L77.8359,19.9141ZM116.023,11.6328L110.789,11.6328L110.336,15.3281L113,15.3281Q115.109,15.3281,114.891,17.5078L113.836,26.1016L103.609,26.1016L104.648,17.5391Q104.789,16.4297,105.359,15.8828Q105.938,15.3281,107.023,15.3281L108.078,15.3281L109.25,5.89844L111.508,5.89844L111.055,9.57031L116.281,9.57031L116.023,11.6328ZM95.7891,11.1484L96.0312,9.13281L99.4844,9.13281L98.9062,5.94531L101.07,5.94531L101.672,9.13281L104.789,9.13281L104.547,11.1484L95.7891,11.1484ZM103.328,22.9844Q99.9141,23.7734,94.5625,24.7812L94.8516,22.5312L97.0391,22.1406Q98.5703,21.8828,99.2656,21.7344Q99.9922,19.4062,100.664,16.8125Q101.07,15.2344,101.719,12.3984L103.875,12.3984Q103.375,14.7031,102.82,16.6484Q101.953,19.7422,101.477,21.2812L103.562,20.8203L103.328,22.9844ZM96.4141,12.5156L98.4297,12.5156L99.0547,20.4141L96.9922,20.4141L96.4141,12.5156ZM106.156,24.0391L111.844,24.0391L112.641,17.3672L106.898,17.3672L106.156,24.0391ZM136.977,26.2031Q131.336,22.6719,128.5,16.0703L125.453,16.0703L124.609,23.2266Q124.586,23.2969,124.586,23.4141Q124.586,23.5625,124.734,23.5625Q124.875,23.5625,124.945,23.5391Q127.734,22.7891,129.727,22.0234L129.414,24.6172Q127.203,25.4766,124.203,26.2031Q123.914,26.2734,123.633,26.2734Q123.008,26.2734,122.594,25.9141Q121.977,25.3594,122.07,24.2109L123.008,16.0703L119.695,16.0703L119.953,13.8125L123.242,13.8125L124.18,5.75L126.656,5.75L125.719,13.8125L139.492,13.8125L139.227,16.0703L130.945,16.0703Q132.102,18.5938,134.023,20.5859Q135.797,22.4062,139.086,24.6406L136.977,26.2031ZM137.695,8.875Q134.953,10.0938,133.133,10.7656Q130.516,11.7266,127.664,12.6172L127.875,10.1641Q132.461,8.79688,138.008,6.15625L137.695,8.875Z" fill="#D8D8D8" fill-opacity="1"/></g></svg>