<svg id="图层_1" data-name="图层 1" xmlns="http://www.w3.org/2000/svg" xmlns:xlink="http://www.w3.org/1999/xlink" viewBox="50 100 890 350"><defs><style>.cls-1{fill:#fff;}.cls-2{fill:#006eff;}.cls-3{fill:url(#未命名的渐变_2);}.cls-4{fill:url(#未命名的渐变_3);}.cls-5{fill:#00a4ff;}</style><linearGradient id="未命名的渐变_2" x1="111.6" y1="227.56" x2="190.02" y2="227.56" gradientUnits="userSpaceOnUse"><stop offset="0" stop-color="#c6f1ff"/><stop offset="1" stop-color="#64d1ff"/></linearGradient><linearGradient id="未命名的渐变_3" x1="304.28" y1="227.56" x2="232.04" y2="227.56" gradientUnits="userSpaceOnUse"><stop offset="0.01" stop-color="#c6f1ff"/><stop offset="1" stop-color="#64d1ff"/></linearGradient></defs><rect class="cls-1" x="364.81" y="308.43" width="45.4" height="8.33"/><path class="cls-1" d="M333.87,293c0,15.14-1.22,26.63-3.74,36.82-.27.94,0,1.19.51,1.19H339a173.9,173.9,0,0,0,3.2-34h11.67V322.9h-8.29c-.4,0-.71.27-.5.84l2.28,7.49h14.82V234h-28.3Zm8.33-3.5V269.59h11.66v19.93Zm11.66-47.19V262.1H342.2V242.33Z"/><path class="cls-1" d="M413.43,267.75h11.18v-7.49H392a75.35,75.35,0,0,0,2.67-7.75h27.86V245H414.4c1.36-4.63,3-10.1,3.06-10.41.16-.56-.13-.77-.49-.77h-7.09L406.59,245h-10c.94-4.33,1.75-9.13,2.49-14.52.09-.62-.25-.75-.66-.75h-8.07c-.83,5.73-1.69,10.66-2.79,15.27h-4.92l-3.29-11.18h-7.09c-.35,0-.65.21-.48.77.09.31,1.69,5.78,3.05,10.41h-7.95v7.49h18.56a72.18,72.18,0,0,1-3,7.75H364.82v7.49H378a42.85,42.85,0,0,1-13.27,12.41v8.57c0,.43.34.89,1.7.12a74.87,74.87,0,0,0,7.76-4.94h31L405,295.13H380.46l.38-6.71a.49.49,0,0,0-.51-.51H372.5l-.79,14.21a.49.49,0,0,0,.51.5h42.24v20.27h-19c-.4,0-.71.26-.5.84l2.28,7.49h26.42V295.13H413.28l.34-14.57A60.38,60.38,0,0,0,425,288.85c1.36.77,1.7.32,1.7-.12v-8.57A42.88,42.88,0,0,1,413.43,267.75Zm-10.2,0a60.83,60.83,0,0,0,6.36,8.66H382.33a52.87,52.87,0,0,0,6.08-8.66Z"/><path class="cls-1" d="M524.63,231.83H467.08v8.32h17.33v30.36H464.55v8.33h19.86v50.91h9.16V278.84h21.9v49.85h17.3v-8.34h-8.14Zm-31.06,38.68V240.15h21.9v30.36Z"/><path class="cls-1" d="M472.89,300.68c-.16.11-7.93,6-15.45,11.7V258.25H436v9.16h12.31v51.86L443.43,323l5,6.64,25.26-19.14v-9.43A.5.5,0,0,0,472.89,300.68Z"/><path class="cls-1" d="M449.55,250.05h10a.5.5,0,0,0,.43-.78L447.37,230h-10a.51.51,0,0,0-.45.76Z"/><rect class="cls-1" x="765.64" y="233.98" width="72.29" height="9.16"/><path class="cls-1" d="M791.85,277.76h56.26V268.6H755.46v9.16h25.7c-5.31,13.94-18.63,48.92-18.72,49.17a.5.5,0,0,0,.47.71h79.91a.51.51,0,0,0,.46-.72c-.08-.23-11.91-31.33-11.91-31.33h-10a.51.51,0,0,0-.48.7c.13.33,8.43,22.19,8.43,22.19h-53Z"/><polygon class="cls-1" points="614.57 319.97 614.57 293.16 634.86 293.16 634.86 284.83 585.11 284.83 585.11 293.16 605.4 293.16 605.4 319.97 581.5 319.97 581.5 328.3 638.47 328.3 638.47 319.97 614.57 319.97"/><polygon class="cls-1" points="560.47 250.09 582.41 250.09 582.41 241.76 563.11 241.76 566.57 230.89 557.83 230.89 554.38 241.76 541.85 241.76 541.85 250.09 551.73 250.09 542.1 280.43 542.1 288.76 561.45 288.76 561.45 303.55 541.55 303.55 541.55 311.88 561.45 311.88 561.45 331.73 570.61 331.73 570.61 311.88 581.28 311.88 581.28 303.55 570.61 303.55 570.61 288.76 580.3 288.76 580.3 280.43 570.61 280.43 570.61 263.71 561.45 263.71 561.45 280.43 550.83 280.43 560.47 250.09"/><path class="cls-1" d="M638.22,271.94a107,107,0,0,1-20.62-11.5,105.11,105.11,0,0,0,15.36-17v-8.33H586.62v8.33h35.32c-10.22,12.43-23,21.83-38.88,28.54v9.43a116.42,116.42,0,0,0,27.55-15.21,116.72,116.72,0,0,0,27.61,15.21Z"/><rect class="cls-1" x="647.38" y="264.97" width="96.92" height="6.62"/><path class="cls-1" d="M700.05,316.69h38v-6.62h-38v-4.93h35.11v-29.9h-78.7v29.9h35.18v4.93h-38v6.62h38v3.5H647.38v7.45H744.3v-7.45H700.05Zm25.87-18.17H700.05v-5.43h25.87Zm0-16.66v5.43H700.05v-5.43Zm-34.28,0v5.43H665.71v-5.43Zm-25.93,16.66v-5.43h25.93v5.43Z"/><path class="cls-1" d="M735.16,233.55h-78.7v28.24h78.7V233.55ZM725.92,241v3.77H665.71V241Zm-60.21,13.34v-3.77h60.21v3.77Z"/><path class="cls-2" d="M210.55,214.62a161.59,161.59,0,0,1,20.65,1.3V203.8l-12.26-6.25-8.39-4.25v0h0l-8.36,4.28L190,203.71v12.2A162.13,162.13,0,0,1,210.55,214.62Z"/><path class="cls-3" d="M190,217.85v19.47l-76.11,16.42a149.45,149.45,0,0,1,0-52.35Z"/><path class="cls-4" d="M231.2,217.85v19.47l76.12,16.42a150.09,150.09,0,0,0,0-52.35Z"/><path class="cls-5" d="M254.29,323.59v19.49a260.55,260.55,0,0,1-87.39,0V323.59a258,258,0,0,0,43.7,3.71A256.84,256.84,0,0,0,254.29,323.59Z"/><path class="cls-2" d="M232.73,252.85q3,.41,6,.91v-12.5a165.14,165.14,0,0,0-56.22,0v12.5c2-.35,4-.65,6-.92l-11.28,65.44a260.52,260.52,0,0,0,33.37,2.14,259.06,259.06,0,0,0,33.4-2.15Z"/></svg>